<?xml version="1.0" encoding="UTF-8"?>
<svg id="Layer_1" data-name="Layer 1" xmlns="http://www.w3.org/2000/svg" viewBox="0 0 92.1 66.91">
  <defs>
    <style>
      .cls-1 {
        fill: #f5f5f5;
      }
    </style>
  </defs>
  <path class="cls-1" d="M30.54,54.4v5.45h-10.26c-2.61,0-5.06-.83-7.12-2.38-.88-.65-1.69-1.46-2.36-2.36-1.55-2.04-2.36-4.51-2.36-7.1v-11.83h5.45v11.83c0,3.52,2.85,6.4,6.4,6.4h10.26Z"/>
  <path class="cls-1" d="M83.66,36.18v11.84c0,3.7-1.78,7.24-4.74,9.46-1.55,1.2-3.42,1.97-5.39,2.24-.51,.09-1.07,.14-1.69,.14-2.98,0-5.8-1.11-7.97-3.1l-13.38-13.36c-2.47-2.4-6.49-2.36-8.95,.09-1.22,1.22-1.87,2.82-1.87,4.55v11.81h-5.45v-11.83c0-3.17,1.23-6.15,3.47-8.37,.39-.39,.81-.76,1.27-1.09,1.59-1.22,3.45-1.99,5.43-2.26,3.67-.53,7.42,.7,10.03,3.33l12.72,12.72c.09,.09,.19,.19,.28,.28l.19,.19c1.13,1,2.63,1.59,4.21,1.59,3.51,0,6.38-2.87,6.38-6.4v-11.84h5.45Z"/>
  <path class="cls-1" d="M83.66,18.89v11.83h-5.45v-11.81c0-1.71-.67-3.33-1.89-4.55-2.47-2.45-6.47-2.48-8.95-.09l-13.36,13.34c-2.17,2.01-5.01,3.12-7.97,3.12s-5.8-1.11-7.97-3.1l-13.38-13.36c-2.47-2.4-6.49-2.36-8.95,.09-1.2,1.22-1.87,2.84-1.87,4.55v11.81h-5.45v-11.83c0-3.17,1.23-6.15,3.47-8.37,.41-.41,.83-.78,1.27-1.09,1.59-1.22,3.45-1.99,5.43-2.26,3.67-.53,7.42,.72,10.03,3.33l12.72,12.72c.09,.11,.19,.19,.3,.3l.18,.18c1.13,1,2.63,1.59,4.21,1.59s3.07-.58,4.21-1.6l.16-.16c.11-.11,.21-.19,.28-.28l12.74-12.74c2.61-2.61,6.36-3.86,10.03-3.33,1.97,.26,3.86,1.04,5.45,2.26,.42,.32,.85,.69,1.25,1.09,2.24,2.22,3.49,5.2,3.49,8.37Z"/>
</svg>