<?xml version="1.0" encoding="UTF-8"?>
<svg id="Layer_1" data-name="Layer 1" xmlns="http://www.w3.org/2000/svg" viewBox="0 0 258.1 54.3">
  <defs>
    <style>
      .cls-1 {
        fill: #f5f5f5;
      }
    </style>
  </defs>
  <path class="cls-1" d="M246.73,27.15c0,.77-.09,1.51-.22,2.23-.33,1.65-1.03,3.14-2.01,4.43-2.01,2.69-5.22,4.44-8.85,4.44h-27.16c-6.14-.02-11.08-4.97-11.08-11.1s4.94-11.08,11.08-11.1h33.88v4.44h-33.88c-3.69,.02-6.64,2.98-6.64,6.66s2.95,6.64,6.64,6.66h27.16c2.88,0,5.35-1.85,6.28-4.43h-17.14c-.14-.72-.22-1.46-.22-2.23s.09-1.51,.22-2.23h21.72c.14,.72,.22,1.46,.22,2.23Z"/>
  <path class="cls-1" d="M46.92,33.81v4.44H22.47c-2.5,0-4.8-.82-6.66-2.23-.84-.62-1.6-1.37-2.21-2.21-1.41-1.85-2.23-4.15-2.23-6.66v-11.08h4.44v11.08c0,3.69,2.98,6.66,6.66,6.66h24.45Z"/>
  <path class="cls-1" d="M193.2,16.05v11.1c0,3.64-1.75,6.86-4.44,8.87-1.44,1.12-3.17,1.85-5.04,2.11-.51,.09-1.05,.12-1.6,.12-2.88,0-5.49-1.08-7.46-2.9l-.75-.75-5.9-5.9-6.19-6.18-.15-.15c-2.59-2.52-6.76-2.47-9.32,.09-1.3,1.3-1.96,3-1.96,4.72v11.06h-4.44v-11.08c0-2.83,1.08-5.68,3.26-7.84,.38-.38,.77-.72,1.18-1.03,1.53-1.17,3.28-1.87,5.09-2.11,3.33-.48,6.84,.57,9.4,3.12l12.39,12.39c.13,.14,.33,.33,.46,.46,1.17,1.05,2.71,1.66,4.39,1.66,3.67,0,6.64-2.99,6.64-6.66v-11.1h4.44Z"/>
  <path class="cls-1" d="M96.43,38.25c-2.88,0-5.49-1.08-7.46-2.9l-.75-.75-5.9-5.9-6.19-6.18-.15-.15c-2.59-2.52-6.76-2.47-9.32,.09-1.3,1.3-1.96,3-1.96,4.72v11.06h-4.44v-11.08c0-2.83,1.08-5.68,3.26-7.84,.38-.38,.77-.72,1.18-1.03,1.53-1.17,3.28-1.87,5.09-2.11,3.33-.48,6.84,.57,9.4,3.12l12.39,12.39c.13,.14,.33,.33,.46,.46,1.17,1.05,2.71,1.66,4.39,1.66s3.23-.62,4.39-1.66c.13-.14,.33-.32,.46-.46l12.39-12.39c2.56-2.56,6.07-3.6,9.4-3.12,1.82,.24,3.57,.94,5.09,2.11,.41,.31,.81,.65,1.18,1.03,2.18,2.16,3.26,5.01,3.26,7.84v11.08h-4.44v-11.06c0-1.72-.65-3.41-1.96-4.72-2.56-2.56-6.72-2.61-9.32-.09l-.15,.15-6.19,6.18-5.9,5.9-.75,.75c-1.97,1.82-4.58,2.9-7.46,2.9Z"/>
  <rect class="cls-1" x="137.05" y="16.07" width="4.44" height="22.18"/>
  <rect class="cls-1" x="51.36" y="16.07" width="4.44" height="22.18"/>
</svg>